<svg xmlns="http://www.w3.org/2000/svg" xmlns:xlink="http://www.w3.org/1999/xlink"><symbol id="arrow-right"><g fill="none"><path d="M6.667 16h18.667M16 6.667 25.333 16 16 25.333" stroke="currentColor" stroke-width="2" stroke-linecap="round" stroke-linejoin="round"/></g></symbol><symbol id="facebook"><g fill="none"><path d="M22 12.06C22 6.505 17.523 2 12 2S2 6.504 2 12.06c0 5.023 3.656 9.185 8.437 9.94v-7.03H7.9v-2.91h2.538V9.844c0-2.521 1.493-3.915 3.778-3.915 1.093 0 2.238.197 2.238.197v2.476h-1.262c-1.242 0-1.628.776-1.628 1.572v1.887h2.773l-.443 2.908h-2.33V22C18.344 21.245 22 17.083 22 12.06Z" fill="currentColor"/></g></symbol><symbol id="half-arrow"><g fill="none"><path d="M0 10.248h23.5L16 1.236" stroke="currentColor" stroke-width="2"/></g></symbol><symbol id="instagram"><g fill="none"><path fill-rule="evenodd" clip-rule="evenodd" d="M12 3c-2.444 0-2.75.01-3.71.054-.959.044-1.613.196-2.186.419-.6.225-1.144.58-1.594 1.038-.457.45-.812.993-1.038 1.593-.221.573-.374 1.228-.418 2.186C3.011 9.25 3 9.555 3 12c0 2.445.01 2.75.054 3.71.044.959.196 1.613.419 2.186.225.6.58 1.144 1.038 1.594.45.458.993.812 1.593 1.038.573.222 1.227.374 2.186.418.96.044 1.266.054 3.71.054s2.75-.01 3.71-.054c.959-.044 1.613-.196 2.186-.419.6-.225 1.144-.58 1.594-1.038.458-.45.812-.993 1.038-1.593.222-.573.374-1.227.418-2.186.044-.96.054-1.266.054-3.71s-.01-2.75-.054-3.71c-.044-.959-.196-1.613-.419-2.186A4.413 4.413 0 0 0 19.49 4.51a4.415 4.415 0 0 0-1.593-1.038c-.573-.221-1.228-.374-2.186-.418C14.75 3.011 14.445 3 12 3Zm0 1.622c2.403 0 2.688.009 3.637.052.877.04 1.354.186 1.671.31.42.163.72.358 1.035.673.315.315.51.615.673 1.035.123.317.27.794.31 1.67.043.95.052 1.235.052 3.638 0 2.403-.009 2.688-.052 3.637-.04.877-.186 1.354-.31 1.671-.144.391-.374.745-.673 1.035-.29.299-.644.529-1.035.673-.317.123-.794.27-1.67.31-.95.043-1.234.052-3.638.052s-2.688-.009-3.637-.052c-.877-.04-1.354-.186-1.671-.31a2.787 2.787 0 0 1-1.035-.673 2.789 2.789 0 0 1-.673-1.035c-.123-.317-.27-.794-.31-1.67-.043-.95-.052-1.235-.052-3.638 0-2.403.009-2.688.052-3.637.04-.877.186-1.354.31-1.671.163-.42.358-.72.673-1.035.29-.299.644-.529 1.035-.673.317-.123.794-.27 1.67-.31.95-.043 1.235-.052 3.638-.052Z" fill="currentColor"/><path fill-rule="evenodd" clip-rule="evenodd" d="M12 15.003a3.004 3.004 0 1 1 0-6.007 3.004 3.004 0 0 1 0 6.007Zm0-7.629a4.626 4.626 0 1 0 0 9.252 4.626 4.626 0 0 0 0-9.252Zm5.972-.084a1.093 1.093 0 1 1-2.187 0 1.093 1.093 0 0 1 2.187 0Z" fill="currentColor"/></g></symbol><symbol id="logo"><g fill="none"><path d="M10.377 15.585c2.363 0 4.428.468 6.195 1.405 1.767.937 3.129 2.256 4.087 3.96.979 1.681 1.469 3.629 1.469 5.843 0 2.192-.49 4.14-1.47 5.843-.957 1.703-2.33 3.022-4.118 3.96-1.767.936-3.821 1.404-6.163 1.404H1.98V15.585h8.397Zm-.35 17.69c2.064 0 3.671-.565 4.82-1.693 1.15-1.128 1.725-2.725 1.725-4.79 0-2.064-.575-3.671-1.724-4.82-1.15-1.15-2.757-1.725-4.822-1.725H7.44v13.027h2.586Zm14.066-4.215c0-1.831.34-3.438 1.022-4.822.703-1.383 1.65-2.448 2.842-3.193 1.192-.745 2.522-1.118 3.991-1.118 1.256 0 2.352.256 3.289.767.958.51 1.692 1.181 2.203 2.012v-2.523h5.46V38h-5.46v-2.523c-.532.83-1.277 1.501-2.235 2.012-.937.511-2.033.766-3.289.766-1.447 0-2.767-.372-3.96-1.117-1.191-.766-2.139-1.841-2.84-3.225-.682-1.405-1.023-3.023-1.023-4.853Zm13.347.032c0-1.363-.383-2.438-1.15-3.226-.744-.787-1.66-1.18-2.745-1.18-1.086 0-2.012.393-2.778 1.18-.745.767-1.118 1.831-1.118 3.194 0 1.362.373 2.448 1.118 3.256.766.788 1.692 1.182 2.778 1.182 1.085 0 2-.394 2.746-1.182.766-.787 1.15-1.862 1.15-3.225Zm20.267-9.1c2.086 0 3.746.68 4.98 2.043 1.257 1.341 1.885 3.193 1.885 5.556V38h-5.429v-9.675c0-1.192-.308-2.118-.926-2.778-.617-.66-1.447-.99-2.49-.99-1.043 0-1.873.33-2.49.99-.618.66-.927 1.586-.927 2.778V38h-5.46V20.183h5.46v2.363c.554-.788 1.299-1.405 2.235-1.852.937-.468 1.99-.703 3.161-.703Zm9.573 9.068c0-1.831.34-3.438 1.022-4.822.702-1.383 1.65-2.448 2.842-3.193 1.192-.745 2.522-1.118 3.99-1.118 1.257 0 2.353.256 3.29.767.958.51 1.692 1.181 2.203 2.012v-2.523h5.46V38h-5.46v-2.523c-.532.83-1.277 1.501-2.235 2.012-.937.511-2.033.766-3.29.766-1.447 0-2.766-.372-3.958-1.117-1.193-.766-2.14-1.841-2.842-3.225-.681-1.405-1.022-3.023-1.022-4.853Zm13.347.032c0-1.363-.383-2.438-1.15-3.226-.745-.787-1.66-1.18-2.746-1.18-1.085 0-2.011.393-2.777 1.18-.746.767-1.118 1.831-1.118 3.194 0 1.362.372 2.448 1.118 3.256.766.788 1.692 1.182 2.777 1.182 1.086 0 2.001-.394 2.746-1.182.767-.787 1.15-1.862 1.15-3.225Zm20.266-9.1c2.086 0 3.747.68 4.981 2.043 1.256 1.341 1.884 3.193 1.884 5.556V38h-5.428v-9.675c0-1.192-.309-2.118-.926-2.778-.617-.66-1.447-.99-2.49-.99-1.043 0-1.874.33-2.491.99-.617.66-.926 1.586-.926 2.778V38h-5.46V20.183h5.46v2.363c.553-.788 1.299-1.405 2.235-1.852.937-.468 1.99-.703 3.161-.703Zm15.768 13.506h7.727V38h-13.825v-4.343l7.407-8.972h-7.344v-4.502h13.603v4.343l-7.568 8.972Z" fill="currentColor"/><path d="M55.615 29v12.5H99V29" stroke="currentColor" stroke-width="2" stroke-linecap="round"/></g></symbol><symbol id="tiktok"><g fill="none"><path d="M18.115 6.009A4.793 4.793 0 0 1 15.937 2h-3.439l-.005 13.78a2.892 2.892 0 0 1-2.885 2.782 2.892 2.892 0 0 1-2.89-2.89 2.894 2.894 0 0 1 2.89-2.891c.298 0 .583.049.853.133v-3.51a6.308 6.308 0 0 0-.853-.062 6.336 6.336 0 0 0-6.329 6.33 6.324 6.324 0 0 0 2.702 5.181A6.292 6.292 0 0 0 9.608 22a6.336 6.336 0 0 0 6.329-6.329V8.684c1.348.968 3 1.538 4.784 1.538V6.784c-.96 0-1.855-.286-2.606-.775Z" fill="currentColor"/></g></symbol><symbol id="youtube"><g fill="none"><path fill-rule="evenodd" clip-rule="evenodd" d="M19.792 5.415c.86.23 1.54.911 1.771 1.771C21.988 8.752 22 12 22 12s0 3.26-.424 4.814a2.519 2.519 0 0 1-1.771 1.771c-1.553.424-7.805.424-7.805.424s-6.252 0-7.805-.424a2.519 2.519 0 0 1-1.771-1.771C2 15.248 2 12 2 12s0-3.248.41-4.801c.232-.86.912-1.54 1.772-1.771 1.554-.424 7.805-.437 7.805-.437s6.252 0 7.805.424ZM15.184 12l-5.187 3.004V8.996L15.184 12Z" fill="currentColor"/></g></symbol></svg>